<svg width="89" height="201" viewBox="0 0 89 201" fill="none" xmlns="http://www.w3.org/2000/svg">
<mask id="mask0" mask-type="alpha" maskUnits="userSpaceOnUse" x="0" y="71" width="89" height="120">
<rect y="71" width="89" height="120" rx="44.5" fill="#EEC430"/>
</mask>
<g mask="url(#mask0)">
<rect y="71" width="89" height="120" rx="44.5" fill="#EEC430"/>
<line x1="-47.1403" y1="110.14" x2="63.8754" y2="221.156" stroke="#DD8D15" stroke-width="2"/>
<line x1="-32.9982" y1="95.9982" x2="78.0175" y2="207.014" stroke="#DD8D15" stroke-width="2"/>
<line x1="-18.8561" y1="81.8561" x2="92.1596" y2="192.872" stroke="#DD8D15" stroke-width="2"/>
<line x1="-4.71391" y1="67.7139" x2="106.302" y2="178.73" stroke="#DD8D15" stroke-width="2"/>
<line x1="9.42818" y1="53.5718" x2="120.444" y2="164.588" stroke="#DD8D15" stroke-width="2"/>
<line x1="23.5703" y1="39.4297" x2="134.586" y2="150.445" stroke="#DD8D15" stroke-width="2"/>
<line x1="63.8754" y1="40.8439" x2="-47.1403" y2="151.86" stroke="#DD8D15" stroke-width="2"/>
<line x1="78.0175" y1="54.986" x2="-32.9982" y2="166.002" stroke="#DD8D15" stroke-width="2"/>
<line x1="92.1597" y1="69.1281" x2="-18.856" y2="180.144" stroke="#DD8D15" stroke-width="2"/>
<line x1="106.302" y1="83.2703" x2="-4.71393" y2="194.286" stroke="#DD8D15" stroke-width="2"/>
<line x1="120.444" y1="97.4124" x2="9.42816" y2="208.428" stroke="#DD8D15" stroke-width="2"/>
<line x1="134.586" y1="111.555" x2="23.5704" y2="222.57" stroke="#DD8D15" stroke-width="2"/>
</g>
<g>
<path d="M32 43C32 66.7482 44.5 86 44.5 86C44.5 86 57 66.7482 57 43C57 19.2518 44.5 -3.05198e-06 44.5 -3.05198e-06C44.5 -3.05198e-06 32 19.2518 32 43Z" fill="#77B06E"/>
<path d="M42.0465 32.4124C37.7583 48.4164 43.9412 63.9784 43.9412 63.9784C43.9412 63.9784 57.0768 53.5928 61.365 37.5888C65.6533 21.5848 59.4704 6.02283 59.4704 6.02283C59.4704 6.02283 46.3348 16.4084 42.0465 32.4124Z" fill="#8BC482"/>
<path d="M26.5141 37.5888C30.8024 53.5928 43.9379 63.9784 43.9379 63.9784C43.9379 63.9784 50.1209 48.4164 45.8326 32.4124C41.5444 16.4085 28.4088 6.02285 28.4088 6.02285C28.4088 6.02285 22.2259 21.5848 26.5141 37.5888Z" fill="#8BC482"/>
<path d="M50.2539 40.0002C41.9696 54.349 43.9142 70.9809 43.9142 70.9809C43.9142 70.9809 59.2901 64.3489 67.5744 50.0002C75.8587 35.6514 73.9142 19.0194 73.9142 19.0194C73.9142 19.0194 58.5382 25.6514 50.2539 40.0002Z" fill="#77B06E"/>
<path d="M20.5382 50.0003C28.8225 64.349 44.1985 70.981 44.1985 70.981C44.1985 70.981 46.143 54.349 37.8587 40.0003C29.5744 25.6515 14.1985 19.0195 14.1985 19.0195C14.1985 19.0195 12.2539 35.6515 20.5382 50.0003Z" fill="#77B06E"/>
<path d="M58.5643 57.9289C46.8486 69.6447 44.4222 86.2132 44.4222 86.2132C44.4222 86.2132 60.9907 83.7868 72.7064 72.0711C84.4222 60.3553 86.8486 43.7868 86.8486 43.7868C86.8486 43.7868 70.28 46.2132 58.5643 57.9289Z" fill="#8BC482"/>
<path d="M16.1421 72.0711C27.8579 83.7868 44.4264 86.2132 44.4264 86.2132C44.4264 86.2132 42 69.6447 30.2843 57.9289C18.5685 46.2132 2 43.7868 2 43.7868C2 43.7868 4.4264 60.3553 16.1421 72.0711Z" fill="#8BC482"/>
</g>
</svg>
