<svg width="140" height="140" viewBox="0 0 140 140" fill="none" xmlns="http://www.w3.org/2000/svg">
<mask id="mask0" mask-type="alpha" maskUnits="userSpaceOnUse" x="1" y="0" width="139" height="138">
<path d="M84.2797 36.3106C81.3815 33.3523 79.4282 31.5162 76.828 28.9467C63.4718 15.7477 41.9446 15.8752 28.7456 29.2315C15.5466 42.5877 17.5954 56.8752 29.0053 73.0713C35.7342 82.6229 39.3943 87.5557 43.6243 93.8447C48.9155 101.711 53.4707 107.664 60.0048 113.547C73.7683 125.939 95.7263 126.482 111.254 110.769C126.783 95.0553 126.633 69.7292 110.919 54.201C104.666 48.021 91.0396 43.2105 84.2797 36.3106Z" fill="#D6C380"/>
</mask>
<g mask="url(#mask0)">
<rect x="2.03516" y="56.2603" width="78" height="116" transform="rotate(-45.3394 2.03516 56.2603)" fill="#D6C380"/>
<ellipse cx="95.4578" cy="32.0693" rx="20.3226" ry="24.3274" transform="rotate(-54.5796 95.4578 32.0693)" fill="#D0BD77"/>
<path d="M47.9503 48.21C46.761 49.4134 45.5441 50.5567 44.306 51.6382M-7.17798 52.7792C-0.152611 59.7219 12.2114 59.4322 24.552 53.2055M54.4519 40.576C56.2199 38.1481 57.7619 35.6709 59.068 33.1874" stroke="#AE9B58"/>
<path d="M65.7322 65.7826C62.6724 68.8789 59.4297 71.577 56.113 73.8506M14.1604 73.8664C19.9497 79.5875 29.3644 80.3974 39.4037 77.0208" stroke="#AE9B58"/>
<path d="M85.1533 57.5596C87.4104 53.0624 88.8903 48.5625 89.5346 44.3154" stroke="#AE9B58"/>
<path d="M51.8584 111.12C55.6395 114.857 60.967 116.499 67.0049 116.247" stroke="#AE9B58"/>
<path d="M96.3175 96.0075C94.6411 97.7039 92.9097 99.2808 91.1414 100.734M107.19 81.4457C109.304 77.515 110.828 73.5619 111.723 69.7576M67.6599 92.9937C66.2765 93.7591 64.8893 94.4504 63.5061 95.0659" stroke="#AE9B58"/>
</g>
</svg>
