<svg width="113" height="130" viewBox="0 0 113 130" fill="none" xmlns="http://www.w3.org/2000/svg">
<rect y="54" width="113" height="76" rx="38" fill="#EF4C56"/>
<rect x="54" y="20" width="5" height="34" fill="#606060"/>
<path d="M42.9959 11.0041C57.6065 25.6147 53.4548 53.4548 53.4548 53.4548C53.4548 53.4548 25.6147 57.6065 11.0041 42.9959C-3.60653 28.3853 0.545179 0.545179 0.545179 0.545179C0.545179 0.545179 28.3853 -3.60653 42.9959 11.0041Z" fill="#639C5A"/>
<path d="M65.3171 29.3171C73.7047 20.9296 89.687 23.313 89.687 23.313C89.687 23.313 92.0704 39.2953 83.6829 47.6829C75.2953 56.0704 59.313 53.687 59.313 53.687C59.313 53.687 56.9296 37.7047 65.3171 29.3171Z" fill="#639C5A"/>
</svg>
