<svg width="183" height="161" viewBox="0 0 183 161" fill="none" xmlns="http://www.w3.org/2000/svg">
<mask id="mask0" mask-type="alpha" maskUnits="userSpaceOnUse" x="0" y="0" width="183" height="182">
<rect x="61.2712" width="171" height="85.5" transform="rotate(45 61.2712 0)" fill="#C4C4C4"/>
</mask>
<g mask="url(#mask0)">
<circle cx="121.729" cy="60.4576" r="85.5" transform="rotate(45 121.729 60.4576)" fill="#639C5A"/>
<circle cx="121.729" cy="60.4576" r="77.5" transform="rotate(45 121.729 60.4576)" fill="#FFFDEA"/>
<circle cx="121.729" cy="60.4576" r="75.5" transform="rotate(45 121.729 60.4576)" fill="#EF4C56"/>
</g>
<path d="M114.799 70.9228C113.549 72.1725 111.745 72.3941 110.769 71.4178C109.792 70.4415 110.014 68.637 111.264 67.3873C112.513 66.1376 115.449 64.7846 116.425 65.7609C117.402 66.7372 116.049 69.6731 114.799 70.9228Z" fill="#606060"/>
<path d="M136.012 92.136C134.763 93.3857 132.958 93.6073 131.982 92.631C131.006 91.6547 131.227 89.8502 132.477 88.6005C133.727 87.3508 136.662 85.9978 137.639 86.9742C138.615 87.9505 137.262 90.8864 136.012 92.136Z" fill="#606060"/>
<path d="M157.226 113.349C155.976 114.599 154.171 114.821 153.195 113.844C152.219 112.868 152.44 111.063 153.69 109.814C154.94 108.564 157.876 107.211 158.852 108.187C159.828 109.164 158.475 112.1 157.226 113.349Z" fill="#606060"/>
<path d="M72.3727 28.4964C71.1231 29.7461 69.3185 29.9677 68.3422 28.9914C67.3659 28.0151 67.5875 26.2106 68.8372 24.9609C70.0869 23.7112 73.0228 22.3582 73.9991 23.3345C74.9754 24.3109 73.6224 27.2467 72.3727 28.4964Z" fill="#606060"/>
<path d="M93.586 49.7096C92.3363 50.9593 90.5318 51.1809 89.5555 50.2046C88.5792 49.2283 88.8008 47.4238 90.0505 46.1741C91.3001 44.9244 94.236 43.5714 95.2123 44.5477C96.1887 45.524 94.8357 48.4599 93.586 49.7096Z" fill="#606060"/>
<path d="M115.153 94.6109C113.903 95.8606 112.099 96.0822 111.122 95.1059C110.146 94.1296 110.368 92.325 111.617 91.0754C112.867 89.8257 115.803 88.4727 116.779 89.449C117.755 90.4253 116.402 93.3612 115.153 94.6109Z" fill="#606060"/>
<path d="M137.78 117.238C136.531 118.488 134.726 118.71 133.75 117.733C132.773 116.757 132.995 114.952 134.245 113.703C135.494 112.453 138.43 111.1 139.407 112.076C140.383 113.053 139.03 115.989 137.78 117.238Z" fill="#606060"/>
<path d="M68.4837 47.9419C67.234 49.1915 65.4295 49.4131 64.4532 48.4368C63.4769 47.4605 63.6985 45.656 64.9482 44.4063C66.1979 43.1566 69.1337 41.8037 70.1101 42.78C71.0864 43.7563 69.7334 46.6922 68.4837 47.9419Z" fill="#606060"/>
<path d="M91.1111 70.5693C89.8615 71.8189 88.0569 72.0405 87.0806 71.0642C86.1043 70.0879 86.3259 68.2834 87.5756 67.0337C88.8253 65.7841 91.7612 64.4311 92.7375 65.4074C93.7138 66.3837 92.3608 69.3196 91.1111 70.5693Z" fill="#606060"/>
<path d="M91.111 114.41C89.8613 115.66 88.0568 115.881 87.0805 114.905C86.1042 113.929 86.3258 112.124 87.5755 110.874C88.8252 109.625 91.7611 108.272 92.7374 109.248C93.7137 110.224 92.3607 113.16 91.111 114.41Z" fill="#606060"/>
<path d="M71.3121 94.6109C70.0624 95.8606 68.2579 96.0822 67.2816 95.1059C66.3053 94.1296 66.5269 92.325 67.7765 91.0754C69.0262 89.8257 71.9621 88.4727 72.9384 89.449C73.9147 90.4253 72.5618 93.3612 71.3121 94.6109Z" fill="#606060"/>
<path d="M116.567 118.653C115.317 119.902 113.513 120.124 112.536 119.147C111.56 118.171 111.782 116.367 113.031 115.117C114.281 113.867 117.217 112.514 118.193 113.491C119.17 114.467 117.817 117.403 116.567 118.653Z" fill="#606060"/>
<path d="M67.0695 69.155C65.8198 70.4047 64.0153 70.6263 63.039 69.65C62.0627 68.6737 62.2843 66.8692 63.534 65.6195C64.7837 64.3698 67.7196 63.0169 68.6959 63.9932C69.6722 64.9695 68.3192 67.9054 67.0695 69.155Z" fill="#606060"/>
<path d="M91.8183 93.9038C90.5686 95.1535 88.7641 95.3751 87.7878 94.3988C86.8115 93.4225 87.0331 91.6179 88.2828 90.3683C89.5324 89.1186 92.4683 87.7656 93.4446 88.7419C94.421 89.7182 93.068 92.6541 91.8183 93.9038Z" fill="#606060"/>
</svg>
