<svg width="246" height="55" viewBox="0 0 246 55" fill="none" xmlns="http://www.w3.org/2000/svg">
<path d="M236 5C236 2.23858 238.239 0 241 0C243.761 0 246 2.23858 246 5V35C246 37.7614 243.761 40 241 40C238.239 40 236 37.7614 236 35V5Z" fill="#EF4C56"/>
<path d="M246 50C246 52.7614 243.761 55 241 55C238.239 55 236 52.7614 236 50C236 47.2386 238.239 45 241 45C243.761 45 246 47.2386 246 50Z" fill="#EF4C56"/>
<path d="M1.46447 18.5355C-0.488155 16.5829 -0.488155 13.4171 1.46447 11.4645C3.41709 9.51184 6.58291 9.51184 8.53553 11.4645L19 21.9289L29.4645 11.4645C31.4171 9.51184 34.5829 9.51184 36.5355 11.4645C38.4882 13.4171 38.4882 16.5829 36.5355 18.5355L24 31.0711V49C24 51.7614 21.7614 54 19 54C16.2386 54 14 51.7614 14 49V31.0711L1.46447 18.5355Z" fill="#EF4C56"/>
<path d="M191.464 18.5355C189.512 16.5829 189.512 13.4171 191.464 11.4645C193.417 9.51184 196.583 9.51184 198.536 11.4645L209 21.9289L219.464 11.4645C221.417 9.51184 224.583 9.51184 226.536 11.4645C228.488 13.4171 228.488 16.5829 226.536 18.5355L214 31.0711V49C214 51.7614 211.761 54 209 54C206.239 54 204 51.7614 204 49V31.0711L191.464 18.5355Z" fill="#639C5A"/>
<path d="M61 45C63.7614 45 66 42.7614 66 40V15C66 12.2386 68.2386 10 71 10C73.7614 10 76 12.2386 76 15V40C76 48.2843 69.2843 55 61 55C52.7157 55 46 48.2843 46 40V15C46 12.2386 48.2386 10 51 10C53.7614 10 56 12.2386 56 15V40C56 42.7614 58.2386 45 61 45Z" fill="#639C5A"/>
<path d="M102 25C102 22.2386 99.7614 20 97 20C94.2386 20 92 22.2386 92 25V50C92 52.7614 89.7614 55 87 55C84.2386 55 82 52.7614 82 50V25C82 16.7157 88.7157 10 97 10C100.842 10 104.346 11.4443 107 13.8195C109.654 11.4443 113.158 10 117 10C125.284 10 132 16.7157 132 25V50C132 52.7614 129.761 55 127 55C124.239 55 122 52.7614 122 50V25C122 22.2386 119.761 20 117 20C114.239 20 112 22.2386 112 25V50C112 52.7614 109.761 55 107 55C104.239 55 102 52.7614 102 50V25Z" fill="#639C5A"/>
<path d="M158 25C158 22.2386 155.761 20 153 20C150.239 20 148 22.2386 148 25V50C148 52.7614 145.761 55 143 55C140.239 55 138 52.7614 138 50V25C138 16.7157 144.716 10 153 10C156.842 10 160.346 11.4443 163 13.8195C165.654 11.4443 169.158 10 173 10C181.284 10 188 16.7157 188 25V50C188 52.7614 185.761 55 183 55C180.239 55 178 52.7614 178 50V25C178 22.2386 175.761 20 173 20C170.239 20 168 22.2386 168 25V50C168 52.7614 165.761 55 163 55C160.239 55 158 52.7614 158 50V25Z" fill="#639C5A"/>
</svg>
