<svg width="139" height="133" viewBox="0 0 139 133" fill="none" xmlns="http://www.w3.org/2000/svg">
<path d="M129.76 94.4181L133.648 93.3515L138.043 103.979L134.729 106.431L129.76 94.4181Z" fill="#606060"/>
<path d="M13.7985 2.4186L3.8026 0.42041C3.8026 0.42041 -0.0998038 11.5732 0.556894 24.2473C0.909713 31.0566 3.37262 37.3911 3.37262 37.3911C0.237948 52.2411 0.0885391 68.6996 6.32679 83.7837C22.7901 123.592 68.4071 142.517 108.215 126.053C118.753 121.695 127.492 114.482 134.729 106.431L129.761 94.4181C81.4239 104.294 30.8374 80.2073 7.99306 35.4803C7.99306 35.4803 7.73482 30.8994 8.08968 23.4566C8.44453 16.0137 13.7985 2.4186 13.7985 2.4186Z" fill="#EEC430"/>
</svg>
