<svg width="145" height="206" viewBox="0 0 145 206" fill="none" xmlns="http://www.w3.org/2000/svg">
<path d="M109.606 49.2564C99.3245 59.5379 79.7333 56.6164 79.7333 56.6164C79.7333 56.6164 76.8117 37.0251 87.0932 26.7436C97.3747 16.4621 116.966 19.3836 116.966 19.3836C116.966 19.3836 119.888 38.9749 109.606 49.2564Z" fill="#639C5A"/>
<path d="M29.965 45.3846C45.3873 60.8069 74.7741 56.4245 74.7741 56.4245C74.7741 56.4245 79.1565 27.0377 63.7342 11.6154C48.3119 -3.8069 18.9251 0.575466 18.9251 0.575466C18.9251 0.575466 14.5427 29.9623 29.965 45.3846Z" fill="#639C5A"/>
<path fill-rule="evenodd" clip-rule="evenodd" d="M58.5755 24.9601C49.1346 27.6688 43.0585 37.2118 44.7936 47.1697C45.066 48.7324 45.6388 50.3132 46.2411 51.7048C48.029 51.697 49.6503 51.3513 51.3063 50.8758C58.8176 48.7193 64.6034 42.0651 65.3274 33.7472C65.4589 32.2355 65.4165 30.7494 65.2164 29.3091C71.4739 29.9002 76.8163 34.6308 77.9582 41.1847C79.3302 49.0596 74.1185 56.5847 66.317 57.9926L67.1813 62.9521C77.696 61.0546 84.721 50.912 82.8715 40.298C81.2168 30.802 73.0196 24.1459 63.781 24.208C61.0346 17.898 55.0496 13.2655 47.7636 12.6392C43.1462 12.2423 38.7655 13.5197 35.2098 15.9715C32.5102 13.6538 29.145 12.0604 25.3711 11.5349C14.7989 10.0626 5.02268 17.528 3.53525 28.2093C2.07927 38.6646 9.10492 48.3258 19.3182 50.1106L20.0138 45.1155C12.5292 43.714 7.40319 36.5958 8.47527 28.8972C9.57885 20.9724 16.8322 15.4336 24.6761 16.5259C27.2296 16.8815 29.531 17.896 31.4355 19.3761C28.8718 22.3782 27.1832 26.1907 26.8136 30.4366C26.2452 36.9683 28.942 43.0647 33.5236 47.0128C37.9139 44.0151 41.025 39.2526 41.8205 33.5407C42.5233 28.4933 41.2495 23.631 38.5947 19.7506C41.122 18.1819 44.1487 17.3861 47.3266 17.6593C52.2256 18.0804 56.3319 20.9427 58.5755 24.9601ZM31.7832 30.8638C32.0382 27.9342 33.1395 25.2827 34.8223 23.1343C36.5624 25.9232 37.3714 29.3271 36.8804 32.8528C36.512 35.4983 35.4584 37.8779 33.9262 39.8337C32.3159 37.2546 31.498 34.1403 31.7832 30.8638ZM60.2298 29.723C60.4166 30.8861 60.4648 32.0917 60.3579 33.32C59.8118 39.5936 55.3847 44.5917 49.677 46.1051C48.4753 38.6774 53.1126 31.6 60.2298 29.723Z" fill="#606060"/>
<circle r="17" transform="matrix(-1 0 0 1 110.35 73)" fill="#533579"/>
<circle r="17" transform="matrix(-1 0 0 1 76.3496 73)" fill="#533579"/>
<circle r="17" transform="matrix(-1 0 0 1 93.3496 102)" fill="#533579"/>
<circle r="17" transform="matrix(-1 0 0 1 93.3496 160)" fill="#533579"/>
<circle r="17" transform="matrix(-1 0 0 1 127.35 102)" fill="#533579"/>
<circle r="17" transform="matrix(-1 0 0 1 110.35 131)" fill="#533579"/>
<circle r="17" transform="matrix(-1 0 0 1 59.3496 102)" fill="#533579"/>
<circle r="17" transform="matrix(-1 0 0 1 76.3496 131)" fill="#533579"/>
<circle r="17" transform="matrix(-1 0 0 1 42.3496 73)" fill="#533579"/>
<circle r="17" transform="matrix(-1 0 0 1 59.3496 160)" fill="#533579"/>
<circle r="17" transform="matrix(-1 0 0 1 76.3496 189)" fill="#533579"/>
<circle r="17" transform="matrix(-1 0 0 1 25.3496 102)" fill="#533579"/>
<circle r="17" transform="matrix(-1 0 0 1 42.3496 131)" fill="#533579"/>
</svg>
