<svg width="91" height="165" viewBox="0 0 91 165" fill="none" xmlns="http://www.w3.org/2000/svg">
<path d="M19.5 68.9574C19.5 54.6215 31.1406 43 45.5 43C59.8594 43 71.5 54.6215 71.5 68.9574V82.2911C83.2876 90.4998 91 104.138 91 119.574C91 144.662 70.629 165 45.5 165C20.371 165 0 144.662 0 119.574C0 104.138 7.71235 90.4998 19.5 82.2911V68.9574Z" fill="#8BC482"/>
<rect x="43" y="9" width="5" height="34" fill="#606060"/>
<path d="M34.2375 8.76249C45.8719 20.3969 42.5659 42.5659 42.5659 42.5659C42.5659 42.5659 20.3969 45.8719 8.76249 34.2375C-2.87187 22.6031 0.434124 0.434124 0.434124 0.434124C0.434124 0.434124 22.6031 -2.87187 34.2375 8.76249Z" fill="#639C5A"/>
</svg>
