<svg width="104" height="156" viewBox="0 0 104 156" fill="none" xmlns="http://www.w3.org/2000/svg">
<g>
<path d="M8.76784 7.11987C12.5942 4.91073 17.4869 6.22174 19.696 10.0481L17.964 11.0481C16.3071 8.17832 12.6376 7.19507 9.76784 8.85192C6.89809 10.5088 5.91484 14.1783 7.57169 17.0481L35.0717 64.6795L33.3396 65.6795L5.83964 18.0481C3.6305 14.2217 4.9415 9.32901 8.76784 7.11987Z" fill="#AFAFAF"/>
<path d="M75.9736 141.524C75.9736 141.524 75.9736 141.524 74.8707 130.613C74.3674 125.634 71.9999 112.641 71.9999 112.641C71.9999 112.641 82.0683 121.188 86.1291 124.113C95.0262 130.524 95.0262 130.524 95.0262 130.524C95.0262 130.524 92.1545 134.318 92.397 138.97C92.6577 143.968 93.4999 149.88 93.4999 149.88C93.4999 149.88 88.801 146.195 84.6028 143.47C80.6958 140.934 75.9736 141.524 75.9736 141.524Z" fill="#AFAFAF"/>
<path d="M9.30371 16.0481C7.64686 13.1783 8.63011 9.50878 11.4999 7.85193V7.85193C14.3696 6.19507 18.0392 7.17833 19.696 10.0481L83.696 120.899L73.3037 126.899L9.30371 16.0481Z" fill="#606060"/>
<path d="M37.9377 67.6436L50.0621 60.6436L51.0621 62.3756L38.9377 69.3756L37.9377 67.6436Z" fill="#AFAFAF"/>
<path fill-rule="evenodd" clip-rule="evenodd" d="M93.325 148.577C93.4303 149.392 93.4999 149.88 93.4999 149.88C93.4999 149.88 93.1118 149.576 92.459 149.077L78.0669 124.149L78.9329 123.649L93.325 148.577Z" fill="#888888"/>
<rect x="79.2009" y="128.113" width="3" height="3" rx="1.5" transform="rotate(-30 79.2009 128.113)" fill="black"/>
</g>
</svg>
