<svg width="679" height="698" viewBox="0 0 679 698" fill="none" xmlns="http://www.w3.org/2000/svg">
<path d="M434.448 618.47L395.45 634.368V611.553L415.259 607.733L418.044 609.385L418.251 609.488L434.448 618.47Z" fill="#C1B7D7"/>
<path d="M501.613 591.217L476.645 601.334L476.129 596.069L501.613 591.217Z" fill="#C1B7D7"/>
<path d="M418.252 609.49H418.045V609.387L418.252 609.49Z" fill="white"/>
<path d="M468.702 597.514L418.354 607.115L421.449 580.79L468.702 597.514Z" fill="#EADDED"/>
<path d="M481.081 644.59L434.448 618.471L418.25 609.49L418.043 609.387L415.258 607.735L418.353 607.115L468.7 597.515L476.129 596.069L476.645 601.334L481.081 644.59Z" fill="#DAD6EA"/>
<path d="M468.702 597.515L418.354 607.115L415.259 607.735H415.156L418.354 607.115L468.702 597.515Z" fill="white"/>
<path d="M526.558 304.439L575.151 306.4L574.532 292.051L526.558 304.439Z" fill="#D9E5F5"/>
<path d="M575.151 306.4L593.515 340.261L574.532 292.051L575.151 306.4Z" fill="#E7ECF7"/>
<path d="M547.397 501.088L624.879 448.748L543.477 480.028L547.397 501.088Z" fill="#CECDE8"/>
<path d="M558.643 474.143L604.864 456.387L558.643 407.454V474.143Z" fill="#EEE1EF"/>
<path d="M631.172 198L624.672 203.678L583.301 209.253L622.918 211.73L628.593 224.841L630.76 216.995L650.362 239.294L629.831 205.949L631.172 198Z" fill="#A0AFD0"/>
<path d="M223.579 596.792L234.722 614.961L195.62 619.504V593.592L223.579 596.792Z" fill="#C1B7D7"/>
<path d="M308.592 606.496L278.982 609.903L279.807 603.192L308.592 606.496Z" fill="#C1B7D7"/>
<path d="M279.807 603.192L278.982 609.903L270.728 673.805L234.721 614.961L223.579 596.792L279.807 603.192Z" fill="#FBEBF4"/>
<path d="M416.132 421.311L393.537 435.454L387.141 417.079L402.616 412.227L416.132 421.311Z" fill="#E7ECF7"/>
<path d="M458.432 395.193L438.314 407.685L436.25 402.007L458.432 395.193Z" fill="#E7ECF7"/>
<path d="M452.035 445.056L416.235 421.415L416.132 421.312L402.616 412.227L436.25 402.007L438.313 407.685L452.035 445.056Z" fill="#CFD6ED"/>
<path d="M400.197 482.212L364.707 509.982L404.427 501.104L400.197 482.212Z" fill="#F5B8D4"/>
<path d="M404.428 501.104L426.919 514.111L400.301 482.625L404.428 501.104Z" fill="#F3A6A9"/>
</svg>
