<svg width="700" height="700" viewBox="0 0 700 700" fill="none" xmlns="http://www.w3.org/2000/svg">
<path d="M317.308 233.364L226.775 270.271V217.308L272.76 208.44L279.227 212.275L279.706 212.514L317.308 233.364Z" fill="#C1B7D7"/>
<path d="M473.226 170.099L415.265 193.584L414.068 181.362L473.226 170.099Z" fill="#C1B7D7"/>
<path d="M279.71 212.519H279.229V212.278L279.71 212.519Z" fill="white"/>
<path d="M396.825 184.717L279.946 207.005L287.131 145.894L396.825 184.717Z" fill="#EADDED"/>
<path d="M425.563 294.001L317.306 233.369L279.704 212.519L279.225 212.279L272.758 208.445L279.943 207.007L396.822 184.719L414.067 181.364L415.264 193.587L425.563 294.001Z" fill="#DAD6EA"/>
<path d="M396.825 184.719L279.946 207.006L272.761 208.444H272.521L279.946 207.006L396.825 184.719Z" fill="white"/>
</svg>
