<?xml version="1.0" encoding="utf-8"?>
<!-- Generator: Adobe Illustrator 22.1.0, SVG Export Plug-In . SVG Version: 6.00 Build 0)  -->
<svg version="1.1" id="Layer_1" xmlns="http://www.w3.org/2000/svg" xmlns:xlink="http://www.w3.org/1999/xlink" x="0px" y="0px"
	 viewBox="0 0 270 289" style="enable-background:new 0 0 270 289;" xml:space="preserve">
<style type="text/css">
	.st0{display:none;}
	.st1{opacity:0.2;}
	.st2{fill:#FFFFFF;}
	.st3{opacity:0.8;fill:url(#SVGID_1_);enable-background:new    ;}
</style>
<rect x="-18" y="-26" class="st0" width="324" height="333"/>
<g id="long" class="st1">
	<rect x="8" y="145" class="st2" width="12" height="1"/>
	<rect x="15.1" y="186.1" transform="matrix(0.9397 -0.342 0.342 0.9397 -62.5407 18.4688)" class="st2" width="12" height="1"/>
	<rect x="35.8" y="222.2" transform="matrix(0.766 -0.6428 0.6428 0.766 -133.4009 79.0019)" class="st2" width="12" height="1"/>
	<rect x="225.1" y="217.5" transform="matrix(0.6428 -0.766 0.766 0.6428 -90.653 252.6656)" class="st2" width="1" height="12"/>
	<rect x="246.1" y="181.5" transform="matrix(0.342 -0.9397 0.9397 0.342 -13.9706 355.0976)" class="st2" width="1" height="12"/>
	<rect x="248" y="146" class="st2" width="12" height="1"/>
	<rect x="241" y="104.9" transform="matrix(0.9397 -0.342 0.342 0.9397 -21.1664 90.8235)" class="st2" width="12" height="1"/>
	<rect x="220.3" y="68.8" transform="matrix(0.766 -0.6428 0.6428 0.766 8.4326 161.69)" class="st2" width="12" height="1"/>
	<rect x="188.5" y="41.8" transform="matrix(0.5 -0.866 0.866 0.5 60.5962 189.5711)" class="st2" width="12" height="1"/>
	<rect x="149.4" y="27.4" transform="matrix(0.1736 -0.9848 0.9848 0.1736 100.9246 176.0356)" class="st2" width="12" height="1"/>
	<rect x="113.2" y="21.8" transform="matrix(0.9848 -0.1736 0.1736 0.9848 -3.095 20.1591)" class="st2" width="1" height="12"/>
	<rect x="73.9" y="35.8" transform="matrix(0.866 -0.5 0.5 0.866 -10.9183 42.8194)" class="st2" width="1" height="12"/>
	<rect x="41.9" y="62.5" transform="matrix(0.6428 -0.766 0.766 0.6428 -37.33 56.9334)" class="st2" width="1" height="12"/>
	<rect x="20.9" y="98.5" transform="matrix(0.342 -0.9397 0.9397 0.342 -84.1154 88.8672)" class="st2" width="1" height="12"/>
</g>
<g id="middle" class="st1">
	<rect x="9.8" y="166.1" transform="matrix(0.9848 -0.1736 0.1736 0.9848 -28.7039 5.0104)" class="st2" width="9" height="1"/>
	<rect x="24" y="205.8" transform="matrix(0.866 -0.5 0.5 0.866 -99.34 41.8893)" class="st2" width="9" height="1"/>
	<rect x="238.5" y="202.7" transform="matrix(0.5 -0.866 0.866 0.5 -59.9255 310.5236)" class="st2" width="1" height="9"/>
	<rect x="253" y="163.1" transform="matrix(0.1736 -0.9848 0.9848 0.1736 44.4725 388.1763)" class="st2" width="1" height="9"/>
	<rect x="249.3" y="124.9" transform="matrix(0.9848 -0.1736 0.1736 0.9848 -17.911 45.962)" class="st2" width="9" height="1"/>
	<rect x="234.9" y="85.2" transform="matrix(0.866 -0.5 0.5 0.866 -10.762 131.2055)" class="st2" width="9" height="1"/>
	<rect x="208" y="52.8" transform="matrix(0.6428 -0.766 0.766 0.6428 35.0891 181.8147)" class="st2" width="9" height="1"/>
	<rect x="171.5" y="31.5" transform="matrix(0.342 -0.9397 0.9397 0.342 85.7836 186.4609)" class="st2" width="9" height="1"/>
	<rect x="134" y="20" class="st2" width="1" height="9"/>
	<rect x="92.4" y="27.2" transform="matrix(0.9397 -0.342 0.342 0.9397 -5.2271 33.6692)" class="st2" width="1" height="9"/>
	<rect x="55.8" y="48.1" transform="matrix(0.766 -0.6428 0.6428 0.766 -20.6464 48.5011)" class="st2" width="1" height="9"/>
	<rect x="28.5" y="80.3" transform="matrix(0.5 -0.866 0.866 0.5 -58.921 67.5167)" class="st2" width="1" height="9"/>
	<rect x="13.9" y="119.9" transform="matrix(0.1736 -0.9848 0.9848 0.1736 -110.5972 116.987)" class="st2" width="1" height="9"/>
</g>
<g id="small" class="st1">
	
		<rect x="8.1" y="149.3" transform="matrix(0.9994 -3.489918e-02 3.489918e-02 0.9994 -5.2211 0.4786)" class="st2" width="6" height="1"/>
	
		<rect x="8.3" y="153.6" transform="matrix(0.9976 -6.975397e-02 6.975397e-02 0.9976 -10.7218 1.1637)" class="st2" width="6" height="1"/>
	<rect x="8.6" y="157.9" transform="matrix(0.9945 -0.1045 0.1045 0.9945 -16.4896 2.0795)" class="st2" width="6" height="1"/>
	<rect x="9.1" y="162.1" transform="matrix(0.9903 -0.1392 0.1392 0.9903 -22.5166 3.2675)" class="st2" width="6" height="1"/>
	<rect x="10.6" y="170.6" transform="matrix(0.9781 -0.2079 0.2079 0.9781 -35.2738 6.5663)" class="st2" width="6" height="1"/>
	<rect x="11.5" y="174.8" transform="matrix(0.9703 -0.2419 0.2419 0.9703 -41.9763 8.715)" class="st2" width="6" height="1"/>
	<rect x="12.6" y="178.9" transform="matrix(0.9613 -0.2756 0.2756 0.9613 -48.842 11.2441)" class="st2" width="6" height="1"/>
	<rect x="13.9" y="183" transform="matrix(0.9511 -0.309 0.309 0.9511 -55.8729 14.1969)" class="st2" width="6" height="1"/>
	<rect x="16.8" y="191.1" transform="matrix(0.9272 -0.3746 0.3746 0.9272 -70.3286 21.3641)" class="st2" width="6" height="1"/>
	<rect x="18.4" y="195.1" transform="matrix(0.9136 -0.4067 0.4067 0.9136 -77.7053 25.6158)" class="st2" width="6" height="1"/>
	<rect x="20.2" y="199" transform="matrix(0.8988 -0.4384 0.4384 0.8988 -85.1133 30.374)" class="st2" width="6" height="1"/>
	<rect x="22.2" y="202.8" transform="matrix(0.8829 -0.4695 0.4695 0.8829 -92.4891 35.6291)" class="st2" width="6" height="1"/>
	<rect x="26.4" y="210.3" transform="matrix(0.848 -0.5299 0.5299 0.848 -107.2362 47.6233)" class="st2" width="6" height="1"/>
	<rect x="28.7" y="213.9" transform="matrix(0.829 -0.5592 0.5592 0.829 -114.4784 54.4024)" class="st2" width="6" height="1"/>
	<rect x="31.2" y="217.4" transform="matrix(0.809 -0.5878 0.5878 0.809 -121.5448 61.7231)" class="st2" width="6" height="1"/>
	<rect x="33.8" y="220.8" transform="matrix(0.788 -0.6157 0.6157 0.788 -128.4436 69.5604)" class="st2" width="6" height="1"/>
	<rect x="230.1" y="219.1" transform="matrix(0.6157 -0.788 0.788 0.6157 -86.411 267.1042)" class="st2" width="1" height="6"/>
	<rect x="232.7" y="215.7" transform="matrix(0.5878 -0.809 0.809 0.5878 -80.8015 278.8396)" class="st2" width="1" height="6"/>
	<rect x="235.2" y="212.2" transform="matrix(0.5592 -0.829 0.829 0.5592 -74.5078 290.2533)" class="st2" width="1" height="6"/>
	<rect x="237.6" y="208.6" transform="matrix(0.5299 -0.848 0.848 0.5299 -67.5663 301.3983)" class="st2" width="1" height="6"/>
	<rect x="241.9" y="201.2" transform="matrix(0.4695 -0.8829 0.8829 0.4695 -51.6896 322.2939)" class="st2" width="1" height="6"/>
	<rect x="243.9" y="197.3" transform="matrix(0.4384 -0.8988 0.8988 0.4384 -42.8234 332.161)" class="st2" width="1" height="6"/>
	<rect x="245.6" y="193.5" transform="matrix(0.4067 -0.9136 0.9136 0.4067 -33.4614 341.4243)" class="st2" width="1" height="6"/>
	<rect x="247.3" y="189.6" transform="matrix(0.3746 -0.9272 0.9272 0.3746 -23.5667 350.1808)" class="st2" width="1" height="6"/>
	<rect x="250.3" y="181.5" transform="matrix(0.309 -0.9511 0.9511 0.309 -2.1135 366.0392)" class="st2" width="1" height="6"/>
	<rect x="251.6" y="177.4" transform="matrix(0.2756 -0.9613 0.9613 0.2756 9.2251 372.9824)" class="st2" width="1" height="6"/>
	<rect x="252.7" y="173.3" transform="matrix(0.2419 -0.9703 0.9703 0.2419 20.9204 379.3618)" class="st2" width="1" height="6"/>
	<rect x="253.7" y="169" transform="matrix(0.2079 -0.9781 0.9781 0.2079 33.0976 384.9482)" class="st2" width="1" height="6"/>
	<rect x="255.3" y="160.6" transform="matrix(0.1392 -0.9903 0.9903 0.1392 58.1337 394.1152)" class="st2" width="1" height="6"/>
	<rect x="255.8" y="156.3" transform="matrix(0.1045 -0.9945 0.9945 0.1045 71.0301 397.5186)" class="st2" width="1" height="6"/>
	
		<rect x="256.1" y="152" transform="matrix(6.975397e-02 -0.9976 0.9976 6.975397e-02 84.0507 400.2326)" class="st2" width="1" height="6"/>
	
		<rect x="256.4" y="147.8" transform="matrix(3.489918e-02 -0.9994 0.9994 3.489918e-02 97.2555 402.278)" class="st2" width="1" height="6"/>
	
		<rect x="254" y="141.7" transform="matrix(0.9994 -3.489918e-02 3.489918e-02 0.9994 -4.8065 9.0551)" class="st2" width="6" height="1"/>
	
		<rect x="253.8" y="137.4" transform="matrix(0.9976 -6.975397e-02 6.975397e-02 0.9976 -8.9958 18.2462)" class="st2" width="6" height="1"/>
	<rect x="253.4" y="133.2" transform="matrix(0.9945 -0.1045 0.1045 0.9945 -12.566 27.5233)" class="st2" width="6" height="1"/>
	<rect x="252.8" y="128.9" transform="matrix(0.9903 -0.1392 0.1392 0.9903 -15.5158 36.8697)" class="st2" width="6" height="1"/>
	<rect x="251.4" y="120.4" transform="matrix(0.9781 -0.2079 0.2079 0.9781 -19.5825 55.5451)" class="st2" width="6" height="1"/>
	<rect x="250.4" y="116.3" transform="matrix(0.9703 -0.2419 0.2419 0.9703 -20.7169 64.7758)" class="st2" width="6" height="1"/>
	<rect x="249.3" y="112" transform="matrix(0.9613 -0.2756 0.2756 0.9613 -21.2459 73.9003)" class="st2" width="6" height="1"/>
	<rect x="248.1" y="107.9" transform="matrix(0.9511 -0.309 0.309 0.9511 -21.2092 82.9071)" class="st2" width="6" height="1"/>
	<rect x="245.3" y="99.9" transform="matrix(0.9272 -0.3746 0.3746 0.9272 -19.5188 100.3011)" class="st2" width="6" height="1"/>
	<rect x="243.6" y="96" transform="matrix(0.9136 -0.4067 0.4067 0.9136 -17.9178 108.6237)" class="st2" width="6" height="1"/>
	<rect x="241.8" y="92.1" transform="matrix(0.8988 -0.4384 0.4384 0.8988 -15.8115 116.6682)" class="st2" width="6" height="1"/>
	<rect x="239.9" y="88.2" transform="matrix(0.8829 -0.4695 0.4695 0.8829 -13.2049 124.4173)" class="st2" width="6" height="1"/>
	<rect x="235.6" y="80.8" transform="matrix(0.848 -0.5299 0.5299 0.848 -6.8245 138.7884)" class="st2" width="6" height="1"/>
	<rect x="233.2" y="77.2" transform="matrix(0.829 -0.5592 0.5592 0.829 -3.0561 145.3917)" class="st2" width="6" height="1"/>
	<rect x="230.8" y="73.6" transform="matrix(0.809 -0.5878 0.5878 0.809 1.0919 151.5913)" class="st2" width="6" height="1"/>
	<rect x="228.2" y="70.1" transform="matrix(0.788 -0.6157 0.6157 0.788 5.5384 157.3465)" class="st2" width="6" height="1"/>
	<rect x="222.8" y="63.5" transform="matrix(0.7431 -0.6691 0.6691 0.7431 15.1559 167.5087)" class="st2" width="6" height="1"/>
	<rect x="219.9" y="60.4" transform="matrix(0.7193 -0.6947 0.6947 0.7193 20.2349 171.9237)" class="st2" width="6" height="1"/>
	<rect x="216.8" y="57.3" transform="matrix(0.6947 -0.7193 0.7193 0.6947 25.4977 175.7408)" class="st2" width="6" height="1"/>
	<rect x="213.7" y="54.5" transform="matrix(0.6691 -0.7431 0.7431 0.6691 30.8532 179.2124)" class="st2" width="6" height="1"/>
	<rect x="207.1" y="48.9" transform="matrix(0.6157 -0.788 0.788 0.6157 41.8594 184.5316)" class="st2" width="6" height="1"/>
	<rect x="203.7" y="46.3" transform="matrix(0.5878 -0.809 0.809 0.5878 47.3594 186.4905)" class="st2" width="6" height="1"/>
	<rect x="200.2" y="43.8" transform="matrix(0.5592 -0.829 0.829 0.5592 52.8345 187.9874)" class="st2" width="6" height="1"/>
	<rect x="196.6" y="41.4" transform="matrix(0.5299 -0.848 0.848 0.5299 58.2652 188.9523)" class="st2" width="6" height="1"/>
	<rect x="189.2" y="37.1" transform="matrix(0.4695 -0.8829 0.8829 0.4695 68.7209 189.6748)" class="st2" width="6" height="1"/>
	<rect x="185.3" y="35.2" transform="matrix(0.4384 -0.8988 0.8988 0.4384 73.6927 189.2983)" class="st2" width="6" height="1"/>
	<rect x="181.5" y="33.4" transform="matrix(0.4067 -0.9136 0.9136 0.4067 78.5409 188.6577)" class="st2" width="6" height="1"/>
	<rect x="177.6" y="31.6" transform="matrix(0.3746 -0.9272 0.9272 0.3746 83.1591 187.5387)" class="st2" width="6" height="1"/>
	<rect x="169.5" y="28.7" transform="matrix(0.309 -0.9511 0.9511 0.309 91.409 184.1885)" class="st2" width="6" height="1"/>
	<rect x="165.4" y="27.4" transform="matrix(0.2756 -0.9613 0.9613 0.2756 95.1363 182.0964)" class="st2" width="6" height="1"/>
	<rect x="161.2" y="26.2" transform="matrix(0.2419 -0.9703 0.9703 0.2419 98.5674 179.6165)" class="st2" width="6" height="1"/>
	<rect x="157" y="25.3" transform="matrix(0.2079 -0.9781 0.9781 0.2079 101.5179 177.0036)" class="st2" width="6" height="1"/>
	<rect x="148.6" y="23.8" transform="matrix(0.1392 -0.9903 0.9903 0.1392 106.4618 170.9787)" class="st2" width="6" height="1"/>
	<rect x="144.4" y="23.3" transform="matrix(0.1045 -0.9945 0.9945 0.1045 108.337 167.8607)" class="st2" width="6" height="1"/>
	
		<rect x="140.1" y="22.9" transform="matrix(6.975397e-02 -0.9976 0.9976 6.975397e-02 109.8222 164.4959)" class="st2" width="6" height="1"/>
	
		<rect x="135.8" y="22.6" transform="matrix(3.489918e-02 -0.9994 0.9994 3.489918e-02 110.8538 160.9945)" class="st2" width="6" height="1"/>
	
		<rect x="129.7" y="20.1" transform="matrix(0.9994 -3.489918e-02 3.489918e-02 0.9994 -0.7252 4.5567)" class="st2" width="1" height="6"/>
	
		<rect x="125.4" y="20.3" transform="matrix(0.9976 -6.975397e-02 6.975397e-02 0.9976 -1.3154 8.8374)" class="st2" width="1" height="6"/>
	<rect x="121.2" y="20.6" transform="matrix(0.9945 -0.1045 0.1045 0.9945 -1.7976 12.8423)" class="st2" width="1" height="6"/>
	<rect x="116.9" y="21.2" transform="matrix(0.9903 -0.1392 0.1392 0.9903 -2.2187 16.578)" class="st2" width="1" height="6"/>
	<rect x="108.4" y="22.6" transform="matrix(0.9781 -0.2079 0.2079 0.9781 -2.9358 23.1994)" class="st2" width="1" height="6"/>
	<rect x="104.3" y="23.5" transform="matrix(0.9703 -0.2419 0.2419 0.9703 -3.2986 26.1262)" class="st2" width="1" height="6"/>
	<rect x="100.1" y="24.6" transform="matrix(0.9613 -0.2756 0.2756 0.9613 -3.7226 28.7964)" class="st2" width="1" height="6"/>
	<rect x="95.9" y="25.9" transform="matrix(0.9511 -0.309 0.309 0.9511 -4.2142 31.214)" class="st2" width="1" height="6"/>
	<rect x="87.9" y="28.8" transform="matrix(0.9272 -0.3746 0.3746 0.9272 -5.4761 35.415)" class="st2" width="1" height="6"/>
	<rect x="83.9" y="30.4" transform="matrix(0.9136 -0.4067 0.4067 0.9136 -6.2794 37.2312)" class="st2" width="1" height="6"/>
	<rect x="80" y="32.2" transform="matrix(0.8988 -0.4384 0.4384 0.8988 -7.275 38.8722)" class="st2" width="1" height="6"/>
	<rect x="76.2" y="34.2" transform="matrix(0.8829 -0.4695 0.4695 0.8829 -8.4808 40.3501)" class="st2" width="1" height="6"/>
	<rect x="68.7" y="38.4" transform="matrix(0.848 -0.5299 0.5299 0.848 -11.4014 42.98)" class="st2" width="1" height="6"/>
	<rect x="65.2" y="40.7" transform="matrix(0.829 -0.5592 0.5592 0.829 -13.2069 44.1869)" class="st2" width="1" height="6"/>
	<rect x="61.6" y="43.2" transform="matrix(0.809 -0.5878 0.5878 0.809 -15.291 45.3265)" class="st2" width="1" height="6"/>
	<rect x="58.2" y="45.8" transform="matrix(0.788 -0.6157 0.6157 0.788 -17.6168 46.4681)" class="st2" width="1" height="6"/>
	<rect x="51.6" y="51.3" transform="matrix(0.7431 -0.6691 0.6691 0.7431 -22.9659 48.784)" class="st2" width="1" height="6"/>
	<rect x="48.4" y="54.2" transform="matrix(0.7193 -0.6947 0.6947 0.7193 -25.9996 50.0148)" class="st2" width="1" height="6"/>
	<rect x="45.4" y="57.2" transform="matrix(0.6947 -0.7193 0.7193 0.6947 -29.3079 51.3904)" class="st2" width="1" height="6"/>
	<rect x="42.4" y="60.3" transform="matrix(0.6691 -0.7431 0.7431 0.6691 -32.8267 52.837)" class="st2" width="1" height="6"/>
	<rect x="36.9" y="66.9" transform="matrix(0.6157 -0.788 0.788 0.6157 -40.7203 56.3215)" class="st2" width="1" height="6"/>
	<rect x="34.3" y="70.3" transform="matrix(0.5878 -0.809 0.809 0.5878 -44.9643 58.3659)" class="st2" width="1" height="6"/>
	<rect x="31.8" y="73.8" transform="matrix(0.5592 -0.829 0.829 0.5592 -49.4253 60.6288)" class="st2" width="1" height="6"/>
	<rect x="29.5" y="77.4" transform="matrix(0.5299 -0.848 0.848 0.5299 -54.1006 63.2365)" class="st2" width="1" height="6"/>
	<rect x="25.1" y="84.8" transform="matrix(0.4695 -0.8829 0.8829 0.4695 -63.922 69.1763)" class="st2" width="1" height="6"/>
	<rect x="23.2" y="88.6" transform="matrix(0.4384 -0.8988 0.8988 0.4384 -69.0308 72.7619)" class="st2" width="1" height="6"/>
	<rect x="21.3" y="92.5" transform="matrix(0.4067 -0.9136 0.9136 0.4067 -74.2865 76.5728)" class="st2" width="1" height="6"/>
	<rect x="19.6" y="96.5" transform="matrix(0.3746 -0.9272 0.9272 0.3746 -79.6749 80.843)" class="st2" width="1" height="6"/>
	<rect x="16.7" y="104.5" transform="matrix(0.309 -0.9511 0.9511 0.309 -90.3623 90.6568)" class="st2" width="1" height="6"/>
	<rect x="15.4" y="108.6" transform="matrix(0.2756 -0.9613 0.9613 0.2756 -95.7569 96.1397)" class="st2" width="1" height="6"/>
	<rect x="14.3" y="112.8" transform="matrix(0.2419 -0.9703 0.9703 0.2419 -101.1521 102.1443)" class="st2" width="1" height="6"/>
	<rect x="13.3" y="116.9" transform="matrix(0.2079 -0.9781 0.9781 0.2079 -106.3392 108.4757)" class="st2" width="1" height="6"/>
	<rect x="11.8" y="125.4" transform="matrix(0.1392 -0.9903 0.9903 0.1392 -116.5756 122.7101)" class="st2" width="1" height="6"/>
	<rect x="11.2" y="129.6" transform="matrix(0.1045 -0.9945 0.9945 0.1045 -121.3834 130.3822)" class="st2" width="1" height="6"/>
	
		<rect x="10.8" y="133.9" transform="matrix(6.975397e-02 -0.9976 0.9976 6.975397e-02 -126.0556 138.6275)" class="st2" width="1" height="6"/>
	
		<rect x="10.6" y="138.2" transform="matrix(3.489918e-02 -0.9994 0.9994 3.489918e-02 -130.4026 147.3673)" class="st2" width="1" height="6"/>
</g>
<linearGradient id="SVGID_1_" gradientUnits="userSpaceOnUse" x1="-944.9498" y1="229.1059" x2="-944.9498" y2="114.0982" gradientTransform="matrix(0.3386 -0.9409 -0.9409 -0.3386 562.1492 -704.9942)">
	<stop  offset="0.4807" style="stop-color:#FFFFFF"/>
	<stop  offset="1" style="stop-color:#FFFFFF;stop-opacity:0"/>
</linearGradient>
<polygon class="st3" points="134.6,145.9 26.5,107 26.8,106.1 135,145 "/>
</svg>
