<?xml version="1.0" encoding="utf-8"?>
<!-- Generator: Adobe Illustrator 22.1.0, SVG Export Plug-In . SVG Version: 6.00 Build 0)  -->
<svg version="1.1" id="Layer_1" xmlns="http://www.w3.org/2000/svg" xmlns:xlink="http://www.w3.org/1999/xlink" x="0px" y="0px"
	 viewBox="0 0 270 289" style="enable-background:new 0 0 270 289;" xml:space="preserve">
<style type="text/css">
	.st0{display:none;}
	.st1{opacity:0.2;}
	.st2{fill:#FFFFFF;}
	.st3{opacity:0.8;fill:url(#SVGID_1_);}
</style>
<rect x="-18" y="-26" class="st0" width="324" height="333"/>
<g id="long" class="st1">
	<rect x="8" y="145" class="st2" width="12" height="1"/>
	<rect x="15.1" y="186.1" transform="matrix(0.9397 -0.342 0.342 0.9397 -62.5411 18.4567)" class="st2" width="12" height="1"/>
	<rect x="35.8" y="222.3" transform="matrix(0.766 -0.6428 0.6428 0.766 -133.4135 78.9524)" class="st2" width="12" height="1"/>
	<rect x="219.6" y="223" transform="matrix(-0.766 -0.6428 0.6428 -0.766 254.7523 539.7573)" class="st2" width="12" height="1"/>
	<rect x="240.6" y="187" transform="matrix(-0.9397 -0.342 0.342 -0.9397 414.1799 448.0556)" class="st2" width="12" height="1"/>
	<rect x="248" y="146" transform="matrix(-1 -8.973679e-11 8.973679e-11 -1 508 293)" class="st2" width="12" height="1"/>
	
		<rect x="240.9" y="104.9" transform="matrix(-0.9397 0.342 -0.342 -0.9397 515.0346 120.0404)" class="st2" width="12" height="1"/>
	<rect x="220.2" y="68.7" transform="matrix(-0.766 0.6428 -0.6428 -0.766 444.0739 -23.1326)" class="st2" width="12" height="1"/>
	<rect x="188.4" y="41.8" transform="matrix(-0.5 0.866 -0.866 -0.5 328.3057 -104.8935)" class="st2" width="12" height="1"/>
	
		<rect x="149.3" y="27.4" transform="matrix(-0.1736 0.9848 -0.9848 -0.1736 209.7889 -120.214)" class="st2" width="12" height="1"/>
	<rect x="107.7" y="27.2" transform="matrix(0.1736 0.9848 -0.9848 0.1736 121.2336 -89.0081)" class="st2" width="12" height="1"/>
	<rect x="68.4" y="41.3" transform="matrix(0.5 0.866 -0.866 0.5 73.4397 -43.5474)" class="st2" width="12" height="1"/>
	<rect x="36.4" y="68" transform="matrix(0.766 0.6428 -0.6428 0.766 53.9385 -11.2298)" class="st2" width="12" height="1"/>
	<rect x="15.4" y="104" transform="matrix(0.9397 0.342 -0.342 0.9397 37.028 -1.0206)" class="st2" width="12" height="1"/>
</g>
<g id="middle" class="st1">
	<rect x="9.8" y="166.1" transform="matrix(0.9848 -0.1736 0.1736 0.9848 -28.7142 5.0072)" class="st2" width="9" height="1"/>
	<rect x="24" y="205.8" transform="matrix(0.866 -0.5 0.5 0.866 -99.3365 41.9052)" class="st2" width="9" height="1"/>
	<rect x="234.5" y="206.7" transform="matrix(-0.866 -0.5 0.5 -0.866 342.3365 506.0948)" class="st2" width="9" height="1"/>
	
		<rect x="249.1" y="167.1" transform="matrix(-0.9848 -0.1736 0.1736 -0.9848 474.1806 376.6667)" class="st2" width="9" height="1"/>
	
		<rect x="249.2" y="124.9" transform="matrix(-0.9848 0.1736 -0.1736 -0.9848 525.4015 204.8216)" class="st2" width="9" height="1"/>
	<rect x="235" y="85.2" transform="matrix(-0.866 0.5 -0.5 -0.866 489.7025 40.1506)" class="st2" width="9" height="1"/>
	<rect x="208" y="52.7" transform="matrix(-0.6428 0.766 -0.766 -0.6428 389.8519 -75.2969)" class="st2" width="9" height="1"/>
	<rect x="171.5" y="31.5" transform="matrix(-0.342 0.9397 -0.9397 -0.342 266.2981 -122.4672)" class="st2" width="9" height="1"/>
	<rect x="130" y="24" transform="matrix(-1.352120e-10 1 -1 -1.352120e-10 159 -110)" class="st2" width="9" height="1"/>
	<rect x="88.4" y="31.2" transform="matrix(0.342 0.9397 -0.9397 0.342 90.883 -66.4817)" class="st2" width="9" height="1"/>
	<rect x="51.8" y="52.1" transform="matrix(0.6428 0.766 -0.766 0.6428 60.4026 -24.3254)" class="st2" width="9" height="1"/>
	<rect x="24.5" y="84.3" transform="matrix(0.866 0.5 -0.5 0.866 46.2975 -3.1506)" class="st2" width="9" height="1"/>
	<rect x="9.9" y="123.9" transform="matrix(0.9848 0.1736 -0.1736 0.9848 21.8227 -0.6162)" class="st2" width="9" height="1"/>
</g>
<g id="small" class="st1">
	
		<rect x="8.1" y="149.3" transform="matrix(0.9994 -3.489950e-02 3.489950e-02 0.9994 -5.221 0.4772)" class="st2" width="6" height="1"/>
	
		<rect x="8.3" y="153.6" transform="matrix(0.9976 -6.975647e-02 6.975647e-02 0.9976 -10.7207 1.1611)" class="st2" width="6" height="1"/>
	<rect x="8.6" y="157.9" transform="matrix(0.9945 -0.1045 0.1045 0.9945 -16.4894 2.0823)" class="st2" width="6" height="1"/>
	<rect x="9.1" y="162.1" transform="matrix(0.9903 -0.1392 0.1392 0.9903 -22.5147 3.2705)" class="st2" width="6" height="1"/>
	<rect x="10.6" y="170.6" transform="matrix(0.9781 -0.2079 0.2079 0.9781 -35.2735 6.5628)" class="st2" width="6" height="1"/>
	<rect x="11.5" y="174.8" transform="matrix(0.9703 -0.2419 0.2419 0.9703 -41.9703 8.7221)" class="st2" width="6" height="1"/>
	<rect x="12.6" y="178.9" transform="matrix(0.9613 -0.2756 0.2756 0.9613 -48.8503 11.2579)" class="st2" width="6" height="1"/>
	<rect x="13.9" y="183" transform="matrix(0.9511 -0.309 0.309 0.9511 -55.8895 14.1945)" class="st2" width="6" height="1"/>
	<rect x="16.8" y="191.1" transform="matrix(0.9272 -0.3746 0.3746 0.9272 -70.34 21.3582)" class="st2" width="6" height="1"/>
	<rect x="18.4" y="195.1" transform="matrix(0.9135 -0.4067 0.4067 0.9135 -77.6935 25.6247)" class="st2" width="6" height="1"/>
	<rect x="20.2" y="199" transform="matrix(0.8988 -0.4384 0.4384 0.8988 -85.0911 30.3706)" class="st2" width="6" height="1"/>
	<rect x="22.2" y="202.8" transform="matrix(0.8829 -0.4695 0.4695 0.8829 -92.4999 35.6103)" class="st2" width="6" height="1"/>
	<rect x="26.4" y="210.3" transform="matrix(0.848 -0.5299 0.5299 0.848 -107.2125 47.6177)" class="st2" width="6" height="1"/>
	<rect x="28.7" y="213.9" transform="matrix(0.829 -0.5592 0.5592 0.829 -114.4442 54.4023)" class="st2" width="6" height="1"/>
	<rect x="31.2" y="217.4" transform="matrix(0.809 -0.5878 0.5878 0.809 -121.5433 61.7144)" class="st2" width="6" height="1"/>
	<rect x="33.8" y="220.8" transform="matrix(0.788 -0.6157 0.6157 0.788 -128.4716 69.556)" class="st2" width="6" height="1"/>
	<rect x="227.6" y="221.6" transform="matrix(-0.788 -0.6157 0.6157 -0.788 275.5956 539.1359)" class="st2" width="6" height="1"/>
	<rect x="230.2" y="218.2" transform="matrix(-0.809 -0.5878 0.5878 -0.809 293.3404 532.7162)" class="st2" width="6" height="1"/>
	<rect x="232.7" y="214.7" transform="matrix(-0.829 -0.5592 0.5592 -0.829 310.7539 525.3975)" class="st2" width="6" height="1"/>
	<rect x="235" y="211.1" transform="matrix(-0.848 -0.5299 0.5299 -0.848 327.7854 517.1992)" class="st2" width="6" height="1"/>
	
		<rect x="239.4" y="203.7" transform="matrix(-0.8829 -0.4695 0.4695 -0.8829 360.5062 498.2572)" class="st2" width="6" height="1"/>
	
		<rect x="241.3" y="199.9" transform="matrix(-0.8988 -0.4384 0.4384 -0.8988 376.101 487.5679)" class="st2" width="6" height="1"/>
	<rect x="243.2" y="196" transform="matrix(-0.9135 -0.4067 0.4067 -0.9135 391.1258 476.1071)" class="st2" width="6" height="1"/>
	<rect x="244.9" y="192" transform="matrix(-0.9272 -0.3746 0.3746 -0.9272 405.5378 463.909)" class="st2" width="6" height="1"/>
	<rect x="247.8" y="184" transform="matrix(-0.9511 -0.309 0.309 -0.9511 432.3657 437.4492)" class="st2" width="6" height="1"/>
	
		<rect x="249.1" y="179.9" transform="matrix(-0.9613 -0.2756 0.2756 -0.9613 444.7083 423.2677)" class="st2" width="6" height="1"/>
	
		<rect x="250.2" y="175.7" transform="matrix(-0.9703 -0.2419 0.2419 -0.9703 456.2923 408.5087)" class="st2" width="6" height="1"/>
	
		<rect x="251.2" y="171.6" transform="matrix(-0.9781 -0.2079 0.2079 -0.9781 467.0876 393.2173)" class="st2" width="6" height="1"/>
	
		<rect x="252.7" y="163.1" transform="matrix(-0.9903 -0.1392 0.1392 -0.9903 486.2074 361.2258)" class="st2" width="6" height="1"/>
	
		<rect x="253.3" y="158.9" transform="matrix(-0.9945 -0.1045 0.1045 -0.9945 494.4869 344.6235)" class="st2" width="6" height="1"/>
	
		<rect x="253.7" y="154.6" transform="matrix(-0.9976 -6.975647e-02 6.975647e-02 -0.9976 501.888 327.684)" class="st2" width="6" height="1"/>
	
		<rect x="253.9" y="150.3" transform="matrix(-0.9994 -3.489950e-02 3.489950e-02 -0.9994 508.3962 310.4587)" class="st2" width="6" height="1"/>
	
		<rect x="253.9" y="141.7" transform="matrix(-0.9994 3.489950e-02 -3.489950e-02 -0.9994 518.6915 275.3603)" class="st2" width="6" height="1"/>
	
		<rect x="253.7" y="137.4" transform="matrix(-0.9976 6.975647e-02 -6.975647e-02 -0.9976 522.4658 257.5926)" class="st2" width="6" height="1"/>
	
		<rect x="253.4" y="133.1" transform="matrix(-0.9945 0.1045 -0.1045 -0.9945 525.3217 239.7496)" class="st2" width="6" height="1"/>
	
		<rect x="252.9" y="128.9" transform="matrix(-0.9903 0.1392 -0.1392 -0.9903 527.2607 221.884)" class="st2" width="6" height="1"/>
	
		<rect x="251.4" y="120.4" transform="matrix(-0.9781 0.2079 -0.2079 -0.9781 528.4125 186.2935)" class="st2" width="6" height="1"/>
	
		<rect x="250.5" y="116.2" transform="matrix(-0.9703 0.2419 -0.2419 -0.9703 527.6448 168.6709)" class="st2" width="6" height="1"/>
	<rect x="249.4" y="112.1" transform="matrix(-0.9613 0.2756 -0.2756 -0.9613 526 151.23)" class="st2" width="6" height="1"/>
	<rect x="248.1" y="108" transform="matrix(-0.9511 0.309 -0.309 -0.9511 523.4955 134.0193)" class="st2" width="6" height="1"/>
	
		<rect x="245.2" y="99.9" transform="matrix(-0.9272 0.3746 -0.3746 -0.9272 515.9922 100.4752)" class="st2" width="6" height="1"/>
	<rect x="243.6" y="95.9" transform="matrix(-0.9135 0.4067 -0.4067 -0.9135 511.0427 84.2308)" class="st2" width="6" height="1"/>
	<rect x="241.8" y="92" transform="matrix(-0.8988 0.4384 -0.4384 -0.8988 505.3318 68.3945)" class="st2" width="6" height="1"/>
	<rect x="239.8" y="88.2" transform="matrix(-0.8829 0.4695 -0.4695 -0.8829 498.8904 53.0056)" class="st2" width="6" height="1"/>
	<rect x="235.6" y="80.7" transform="matrix(-0.848 0.5299 -0.5299 -0.848 483.9506 23.7173)" class="st2" width="6" height="1"/>
	<rect x="233.3" y="77.1" transform="matrix(-0.829 0.5592 -0.5592 -0.829 475.5246 9.8851)" class="st2" width="6" height="1"/>
	<rect x="230.8" y="73.6" transform="matrix(-0.809 0.5878 -0.5878 -0.809 466.5125 -3.3653)" class="st2" width="6" height="1"/>
	<rect x="228.2" y="70.2" transform="matrix(-0.788 0.6157 -0.6157 -0.788 456.9547 -16.0068)" class="st2" width="6" height="1"/>
	
		<rect x="222.7" y="63.6" transform="matrix(-0.7431 0.6691 -0.6691 -0.7431 436.3701 -39.3698)" class="st2" width="6" height="1"/>
	
		<rect x="219.8" y="60.4" transform="matrix(-0.7193 0.6947 -0.6947 -0.7193 425.4301 -50.0515)" class="st2" width="6" height="1"/>
	
		<rect x="216.8" y="57.4" transform="matrix(-0.6947 0.7193 -0.7193 -0.6947 414.1176 -60.0454)" class="st2" width="6" height="1"/>
	<rect x="213.7" y="54.4" transform="matrix(-0.6691 0.7431 -0.7431 -0.6691 402.4775 -69.339)" class="st2" width="6" height="1"/>
	<rect x="207.1" y="48.9" transform="matrix(-0.6157 0.788 -0.788 -0.6157 378.3973 -85.7917)" class="st2" width="6" height="1"/>
	<rect x="203.7" y="46.3" transform="matrix(-0.5878 0.809 -0.809 -0.5878 366.0482 -92.9413)" class="st2" width="6" height="1"/>
	<rect x="200.2" y="43.8" transform="matrix(-0.5592 0.829 -0.829 -0.5592 353.5536 -99.3718)" class="st2" width="6" height="1"/>
	<rect x="196.6" y="41.5" transform="matrix(-0.5299 0.848 -0.848 -0.5299 340.958 -105.086)" class="st2" width="6" height="1"/>
	
		<rect x="189.2" y="37.1" transform="matrix(-0.4695 0.8829 -0.8829 -0.4695 315.6398 -114.3912)" class="st2" width="6" height="1"/>
	
		<rect x="185.4" y="35.2" transform="matrix(-0.4384 0.8988 -0.8988 -0.4384 303.0023 -118.0019)" class="st2" width="6" height="1"/>
	
		<rect x="181.5" y="33.3" transform="matrix(-0.4067 0.9135 -0.9135 -0.4067 290.4342 -120.9356)" class="st2" width="6" height="1"/>
	
		<rect x="177.5" y="31.6" transform="matrix(-0.3746 0.9272 -0.9272 -0.3746 277.9749 -123.209)" class="st2" width="6" height="1"/>
	<rect x="169.5" y="28.7" transform="matrix(-0.309 0.9511 -0.9511 -0.309 253.532 -125.8526)" class="st2" width="6" height="1"/>
	
		<rect x="165.4" y="27.4" transform="matrix(-0.2756 0.9613 -0.9613 -0.2756 241.6187 -126.2675)" class="st2" width="6" height="1"/>
	
		<rect x="161.2" y="26.3" transform="matrix(-0.2419 0.9703 -0.9703 -0.2419 229.9544 -126.1109)" class="st2" width="6" height="1"/>
	
		<rect x="157.1" y="25.3" transform="matrix(-0.2079 0.9781 -0.9781 -0.2079 218.5692 -125.4102)" class="st2" width="6" height="1"/>
	
		<rect x="148.6" y="23.8" transform="matrix(-0.1392 0.9903 -0.9903 -0.1392 196.7444 -122.4941)" class="st2" width="6" height="1"/>
	
		<rect x="144.4" y="23.2" transform="matrix(-0.1045 0.9945 -0.9945 -0.1045 186.3531 -120.3409)" class="st2" width="6" height="1"/>
	
		<rect x="140.1" y="22.8" transform="matrix(-6.975647e-02 0.9976 -0.9976 -6.975647e-02 176.3372 -117.7681)" class="st2" width="6" height="1"/>
	
		<rect x="135.8" y="22.6" transform="matrix(-3.489950e-02 0.9994 -0.9994 -3.489950e-02 166.7144 -114.8095)" class="st2" width="6" height="1"/>
	
		<rect x="127.2" y="22.6" transform="matrix(3.489950e-02 0.9994 -0.9994 3.489950e-02 148.7063 -107.875)" class="st2" width="6" height="1"/>
	
		<rect x="122.9" y="22.8" transform="matrix(6.975647e-02 0.9976 -0.9976 6.975647e-02 140.3432 -103.9701)" class="st2" width="6" height="1"/>
	<rect x="118.6" y="23.1" transform="matrix(0.1045 0.9945 -0.9945 0.1045 132.4175 -99.8215)" class="st2" width="6" height="1"/>
	<rect x="114.4" y="23.6" transform="matrix(0.1392 0.9903 -0.9903 0.1392 124.9338 -95.465)" class="st2" width="6" height="1"/>
	<rect x="105.9" y="25.1" transform="matrix(0.2079 0.9781 -0.9781 0.2079 111.2959 -86.2712)" class="st2" width="6" height="1"/>
	<rect x="101.7" y="26" transform="matrix(0.2419 0.9703 -0.9703 0.2419 105.1371 -81.504)" class="st2" width="6" height="1"/>
	<rect x="97.6" y="27.1" transform="matrix(0.2756 0.9613 -0.9613 0.2756 99.4112 -76.6691)" class="st2" width="6" height="1"/>
	<rect x="93.5" y="28.4" transform="matrix(0.309 0.9511 -0.9511 0.309 94.1094 -71.7994)" class="st2" width="6" height="1"/>
	<rect x="85.4" y="31.3" transform="matrix(0.3746 0.9272 -0.9272 0.3746 84.7324 -62.0828)" class="st2" width="6" height="1"/>
	<rect x="81.4" y="32.9" transform="matrix(0.4067 0.9135 -0.9135 0.4067 80.6285 -57.2959)" class="st2" width="6" height="1"/>
	<rect x="77.5" y="34.7" transform="matrix(0.4384 0.8988 -0.8988 0.4384 76.8916 -52.594)" class="st2" width="6" height="1"/>
	<rect x="73.7" y="36.7" transform="matrix(0.4695 0.8829 -0.8829 0.4695 73.5024 -48.0031)" class="st2" width="6" height="1"/>
	<rect x="66.2" y="40.9" transform="matrix(0.5299 0.848 -0.848 0.5299 67.6807 -39.2491)" class="st2" width="6" height="1"/>
	<rect x="62.6" y="43.2" transform="matrix(0.5592 0.829 -0.829 0.5592 65.2012 -35.1281)" class="st2" width="6" height="1"/>
	<rect x="59.1" y="45.7" transform="matrix(0.5878 0.809 -0.809 0.5878 62.9756 -31.2025)" class="st2" width="6" height="1"/>
	<rect x="55.7" y="48.3" transform="matrix(0.6157 0.788 -0.788 0.6157 60.977 -27.4878)" class="st2" width="6" height="1"/>
	<rect x="49.1" y="53.8" transform="matrix(0.6691 0.7431 -0.7431 0.6691 57.5499 -20.7419)" class="st2" width="6" height="1"/>
	<rect x="45.9" y="56.7" transform="matrix(0.6947 0.7193 -0.7193 0.6947 56.0637 -17.7302)" class="st2" width="6" height="1"/>
	<rect x="42.9" y="59.7" transform="matrix(0.7193 0.6947 -0.6947 0.7193 54.6901 -14.968)" class="st2" width="6" height="1"/>
	<rect x="39.9" y="62.8" transform="matrix(0.7431 0.6691 -0.6691 0.7431 53.3992 -12.4588)" class="st2" width="6" height="1"/>
	<rect x="34.4" y="69.4" transform="matrix(0.788 0.6157 -0.6157 0.788 50.9469 -8.2012)" class="st2" width="6" height="1"/>
	<rect x="31.8" y="72.8" transform="matrix(0.809 0.5878 -0.5878 0.809 49.7267 -6.4473)" class="st2" width="6" height="1"/>
	<rect x="29.3" y="76.3" transform="matrix(0.829 0.5592 -0.5592 0.829 48.4721 -4.9357)" class="st2" width="6" height="1"/>
	<rect x="27" y="79.9" transform="matrix(0.848 0.5299 -0.5299 0.848 47.1551 -3.6574)" class="st2" width="6" height="1"/>
	<rect x="22.6" y="87.3" transform="matrix(0.8829 0.4695 -0.4695 0.8829 44.2263 -1.7548)" class="st2" width="6" height="1"/>
	<rect x="20.7" y="91.1" transform="matrix(0.8988 0.4384 -0.4384 0.8988 42.5637 -1.1016)" class="st2" width="6" height="1"/>
	<rect x="18.8" y="95" transform="matrix(0.9135 0.4067 -0.4067 0.9135 40.7372 -0.6243)" class="st2" width="6" height="1"/>
	<rect x="17.1" y="99" transform="matrix(0.9272 0.3746 -0.3746 0.9272 38.7251 -0.3037)" class="st2" width="6" height="1"/>
	<rect x="14.2" y="107" transform="matrix(0.9511 0.309 -0.309 0.9511 34.0647 -4.505266e-02)" class="st2" width="6" height="1"/>
	
		<rect x="12.9" y="111.1" transform="matrix(0.9613 0.2756 -0.2756 0.9613 31.3816 -5.954535e-02)" class="st2" width="6" height="1"/>
	<rect x="11.8" y="115.3" transform="matrix(0.9703 0.2419 -0.2419 0.9703 28.4434 -0.1358)" class="st2" width="6" height="1"/>
	<rect x="10.8" y="119.4" transform="matrix(0.9781 0.2079 -0.2079 0.9781 25.2379 -0.2465)" class="st2" width="6" height="1"/>
	<rect x="9.3" y="127.9" transform="matrix(0.9903 0.1392 -0.1392 0.9903 17.9873 -0.4577)" class="st2" width="6" height="1"/>
	<rect x="8.7" y="132.1" transform="matrix(0.9945 0.1045 -0.1045 0.9945 13.9295 -0.4991)" class="st2" width="6" height="1"/>
	
		<rect x="8.3" y="136.4" transform="matrix(0.9976 6.975647e-02 -6.975647e-02 0.9976 9.5787 -0.4571)" class="st2" width="6" height="1"/>
	
		<rect x="8.1" y="140.7" transform="matrix(0.9994 3.489950e-02 -3.489950e-02 0.9994 4.9348 -0.3011)" class="st2" width="6" height="1"/>
</g>
<linearGradient id="SVGID_1_" gradientUnits="userSpaceOnUse" x1="134.5" y1="30" x2="134.5" y2="145" gradientTransform="matrix(0.7615 0.6482 -0.6482 0.7615 126.1807 -52.9197)">
	<stop  offset="0.4807" style="stop-color:#FFFFFF"/>
	<stop  offset="1" style="stop-color:#FFFFFF;stop-opacity:0"/>
</linearGradient>
<polygon class="st3" points="134.2,144.4 208.8,56.8 209.5,57.4 135,145 "/>
<g>
</g>
<g>
</g>
<g>
</g>
<g>
</g>
<g>
</g>
<g>
</g>
<g>
</g>
<g>
</g>
<g>
</g>
<g>
</g>
<g>
</g>
<g>
</g>
<g>
</g>
<g>
</g>
<g>
</g>
</svg>
